<svg id="Ebene_1" data-name="Ebene 1" xmlns="http://www.w3.org/2000/svg" viewBox="0 0 1000 172"><defs><style>.cls-1{fill:#163438;}</style></defs><title>Zeichenfläche 1</title><polygon class="cls-1" points="224.37 150.45 305.31 150.45 305.31 133.65 243.59 133.65 243.59 93.99 301.67 93.99 301.67 77.4 243.59 77.4 243.59 38.14 305.31 38.14 305.31 21.55 224.37 21.55 224.37 150.45"/><polygon class="cls-1" points="424.14 104.35 384.18 21.55 356.56 21.55 356.56 150.45 375.78 150.45 375.78 47.23 417.77 135.17 430.41 135.17 471.39 49.27 471.39 150.45 490.81 150.45 490.81 21.55 464.1 21.55 424.14 104.35"/><path class="cls-1" d="M619.88,32.28q-11.64-10.73-33.19-10.73h-43.2v128.9h19.42V102h23.78q21.55,0,33.19-10.63t11.63-29.44Q631.51,43,619.88,32.28ZM605.41,78.82Q599,85.2,586.69,85.19H562.91v-47h23.78q12.34,0,18.72,6.58t6.37,17.2Q611.78,72.45,605.41,78.82Z"/><rect class="cls-1" x="674.6" y="21.55" width="19.22" height="128.9"/><path class="cls-1" d="M826.06,26.61q-12.84-7.38-29.44-7.39t-29.34,7.29q-12.85,7.29-20.23,22.16T739.76,86.1q0,22.26,7.29,37.13t20.23,22.36q12.86,7.49,29.34,7.49t29.44-7.29q13-7.38,20.24-22.25t7.38-37.44q0-22.26-7.38-37.13T826.06,26.61Zm-2.32,96.22q-9.91,12.64-27.12,12.64-16.89,0-26.91-12.64t-10-36.73q0-23.77,10-36.73t26.91-12.95q17.21,0,27.12,12.95t10,36.53Q833.75,110.19,823.74,122.83Z"/><polygon class="cls-1" points="980.78 21.55 980.78 119.08 919.87 21.55 897.91 21.55 897.91 150.45 917.14 150.45 917.14 50.88 979.56 150.45 1000 150.45 1000 21.55 980.78 21.55"/><path class="cls-1" d="M138,82.28C130.78,65,124.34,49.74,118.65,38.5,112.53,26.4,107.09,18.54,101,13,87.05.35,69.84.35,46,.35h-.16C31.42.35,19.39,5.71,11.08,15.84,4.19,24.24.26,35.67,0,48-.22,59.68,2.75,70.92,8.36,79.68a41.4,41.4,0,0,0,5,6.32,41.4,41.4,0,0,0-5,6.32C2.75,101.08-.22,112.32,0,124c.25,12.36,4.18,23.79,11.07,32.19,8.31,10.13,20.34,15.49,34.79,15.49H46c23.81,0,41,0,55-12.67,6.08-5.52,11.52-13.38,17.64-25.48C124.34,122.26,130.78,107,138,89.72L139.56,86,138,82.28Zm-37,42.27c-5,9.86-9.08,16-13.29,19.76-7.26,6.6-15.44,7.53-41.82,7.53-8.44,0-15-2.77-19.48-8.24-4.08-5-6.42-12.09-6.57-20-.15-7.65,1.75-15.15,5.22-20.56C28.15,98.16,32,95.7,36.4,95.7H114C108.23,109.32,104.44,117.72,101,124.55ZM36.41,76.29c-4.43,0-8.25-2.46-11.35-7.31-3.48-5.42-5.38-12.91-5.23-20.57.16-7.93,2.49-15,6.57-20h0c4.49-5.47,11.05-8.25,19.48-8.25,26.39,0,34.56.94,41.83,7.53,4.2,3.82,8.3,9.91,13.28,19.76,3.46,6.84,7.26,15.23,13,28.86Z"/></svg>