<svg xmlns="http://www.w3.org/2000/svg" viewBox="0 0 16 16">
  <rect width="16" height="16" rx="2" fill="#4a5568"/>
  <!-- Shadow -->
  <rect x="4" y="4" width="2" height="2" fill="#2d3748"/>
  <rect x="11" y="4" width="2" height="2" fill="#2d3748"/>
  <rect x="5" y="6" width="2" height="2" fill="#2d3748"/>
  <rect x="10" y="6" width="2" height="2" fill="#2d3748"/>
  <rect x="6" y="8" width="2" height="2" fill="#2d3748"/>
  <rect x="9" y="8" width="2" height="2" fill="#2d3748"/>
  <rect x="7" y="10" width="3" height="2" fill="#2d3748"/>
  <rect x="8" y="12" width="2" height="2" fill="#2d3748"/>
  <!-- Main V -->
  <rect x="3" y="3" width="2" height="2" fill="#f6e05e"/>
  <rect x="11" y="3" width="2" height="2" fill="#f6e05e"/>
  <rect x="4" y="5" width="2" height="2" fill="#f6e05e"/>
  <rect x="10" y="5" width="2" height="2" fill="#f6e05e"/>
  <rect x="5" y="7" width="2" height="2" fill="#f6e05e"/>
  <rect x="9" y="7" width="2" height="2" fill="#f6e05e"/>
  <rect x="6" y="9" width="2" height="2" fill="#f6e05e"/>
  <rect x="8" y="9" width="2" height="2" fill="#f6e05e"/>
  <rect x="7" y="11" width="2" height="2" fill="#f6e05e"/>
</svg>
